<?xml version="1.0" encoding="UTF-8" standalone="no"?>
<!DOCTYPE svg PUBLIC "-//W3C//DTD SVG 1.1//EN" "http://www.w3.org/Graphics/SVG/1.1/DTD/svg11.dtd">
<svg width="100%" height="100%" viewBox="0 0 256 256" version="1.1" xmlns="http://www.w3.org/2000/svg" xmlns:xlink="http://www.w3.org/1999/xlink" xml:space="preserve" xmlns:serif="http://www.serif.com/" style="fill-rule:evenodd;clip-rule:evenodd;stroke-linecap:round;stroke-linejoin:round;stroke-miterlimit:1.5;">
    <rect id="Artboard1" x="0" y="0" width="256" height="256" style="fill:rgb(63,63,63);"/>
    <clipPath id="_clip1">
        <rect id="Artboard11" serif:id="Artboard1" x="0" y="0" width="256" height="256"/>
    </clipPath>
    <g clip-path="url(#_clip1)">
        <path d="M16,240C10.667,213.333 10.667,42.667 16,16L16,240ZM24.296,19.755C26.849,25.325 29.71,33.193 32.593,41.43L32.593,214.57C29.71,222.807 26.849,230.675 24.296,236.245L24.296,19.755ZM40.889,64.975C43.655,72.392 46.135,78.135 48,80C48.395,80.395 48.79,80.644 49.185,80.766L49.185,175.234C48.79,175.356 48.395,175.605 48,176C46.135,177.865 43.655,183.608 40.889,191.025L40.889,64.975ZM57.481,71.377C59.654,67.541 61.827,64 64,64C64.603,64 65.195,64.151 65.778,64.425L65.778,191.575C65.195,191.849 64.603,192 64,192C61.827,192 59.654,188.459 57.481,184.623L57.481,71.377ZM74.074,73.76C75.903,76.215 77.84,78.56 80,80C80.728,80.485 81.522,81.037 82.37,81.636L82.37,174.364C81.522,174.963 80.728,175.515 80,176C77.84,177.44 75.903,179.785 74.074,182.24L74.074,73.76ZM90.667,87.52C93.37,89.376 96.202,91.21 98.963,92.721L98.963,163.279C96.202,164.79 93.37,166.624 90.667,168.48L90.667,87.52ZM107.259,96.081C109.021,96.444 110.628,96.457 112,96C113.318,95.561 114.491,94.397 115.556,92.761L115.556,163.239C114.491,161.603 113.318,160.439 112,160C110.628,159.543 109.021,159.556 107.259,159.919L107.259,96.081ZM123.852,69.996C125.141,66.449 126.459,64 128,64C129.541,64 130.859,66.004 132.148,69.046L132.148,186.954C130.859,189.996 129.541,192 128,192C126.459,192 125.141,189.551 123.852,186.004L123.852,69.996ZM140.444,90.922C141.509,92.93 142.682,94.682 144,96C145.44,97.44 147.032,98.758 148.741,99.973L148.741,156.027C147.032,157.242 145.44,158.56 144,160C142.682,161.318 141.509,163.07 140.444,165.078L140.444,90.922ZM157.037,104.783C159.715,106.072 162.509,107.224 165.333,108.289L165.333,147.711C162.509,148.776 159.715,149.928 157.037,151.217L157.037,104.783ZM173.63,111.208C174.425,111.475 175.216,111.739 176,112C177.66,112.553 179.666,113.164 181.926,113.815L181.926,142.185C179.666,142.836 177.66,143.447 176,144C175.216,144.261 174.425,144.525 173.63,144.792L173.63,111.208ZM190.222,116.089C192.867,116.787 195.66,117.503 198.519,118.221L198.519,137.779C195.66,138.497 192.867,139.213 190.222,139.911L190.222,116.089ZM206.815,120.271C209.617,120.953 212.407,121.622 215.111,122.264L215.111,133.736C212.407,134.378 209.617,135.047 206.815,135.729L206.815,120.271ZM223.407,124.213C226.486,124.929 229.301,125.577 231.704,126.125L231.704,129.875C229.301,130.423 226.486,131.071 223.407,131.787L223.407,124.213Z" style="fill:rgb(128,191,255);"/>
        <path d="M0,128L256,128L16,128" style="fill:none;fill-rule:nonzero;stroke:rgb(238,103,238);stroke-width:16px;"/>
    </g>
</svg>
